{
	"asset":{
		"generator":"Khronos glTF Blender I/O v4.1.62",
		"version":"2.0"
	},
	"scene":0,
	"scenes":[
		{
			"name":"Scene",
			"nodes":[
				27
			]
		}
	],
	"nodes":[
		{
			"name":"arm_left_hand_end",
			"rotation":[
				3.3760443329811096e-08,
				1.3737007975578308e-08,
				2.2377935238182545e-07,
				1
			],
			"translation":[
				1.1026859283447266e-06,
				4.1074700355529785,
				-5.960464477539063e-08
			]
		},
		{
			"children":[
				0
			],
			"name":"arm_left_hand",
			"rotation":[
				-6.5192584663975595e-09,
				-1.83936208486557e-08,
				-4.6208154458327044e-07,
				1
			],
			"scale":[
				1,
				0.9999999403953552,
				1
			],
			"translation":[
				1.2442469596862793e-06,
				8.214932441711426,
				2.384185791015625e-07
			]
		},
		{
			"children":[
				1
			],
			"name":"arm_left_bot",
			"rotation":[
				-0.01948094740509987,
				0.0012932770187035203,
				0.2062097042798996,
				0.9783130884170532
			],
			"scale":[
				1,
				1,
				0.9999999403953552
			],
			"translation":[
				-5.140900611877441e-07,
				8.668816566467285,
				-5.960464477539063e-08
			]
		},
		{
			"children":[
				2
			],
			"name":"arm_left_top",
			"rotation":[
				-0.003582036355510354,
				-0.0006049105431884527,
				0.021199168637394905,
				0.9997686743736267
			],
			"translation":[
				3.725290298461914e-07,
				2.092052698135376,
				-1.1920928955078125e-07
			]
		},
		{
			"children":[
				3
			],
			"name":"shoulder_left",
			"rotation":[
				0.04910992830991745,
				-9.35775723576171e-09,
				-0.44190406799316406,
				0.8957170248031616
			],
			"scale":[
				1,
				0.9999999403953552,
				0.9999999403953552
			],
			"translation":[
				11.676606178283691,
				-2.098571538925171,
				-0.5069238543510437
			]
		},
		{
			"name":"head_end",
			"rotation":[
				-2.77805565218614e-08,
				0,
				0,
				1
			],
			"translation":[
				0,
				4.291105270385742,
				-2.6161245614275686e-08
			]
		},
		{
			"children":[
				5
			],
			"name":"head",
			"rotation":[
				2.77805565218614e-08,
				0,
				0,
				1
			],
			"translation":[
				0,
				8.582212448120117,
				-4.783260010299273e-08
			]
		},
		{
			"children":[
				6
			],
			"name":"neck",
			"rotation":[
				-1.3134290099969803e-08,
				0,
				0,
				1
			],
			"translation":[
				0,
				2.0000007152557373,
				-2.361597353228717e-07
			]
		},
		{
			"name":"arm_right_hand_end",
			"rotation":[
				3.3760443329811096e-08,
				-1.3737007975578308e-08,
				-2.2377935238182545e-07,
				1
			],
			"translation":[
				-1.1026859283447266e-06,
				4.1074700355529785,
				-5.960464477539063e-08
			]
		},
		{
			"children":[
				8
			],
			"name":"arm_right_hand",
			"rotation":[
				-6.5192584663975595e-09,
				1.83936208486557e-08,
				4.6208154458327044e-07,
				1
			],
			"scale":[
				1,
				0.9999999403953552,
				1
			],
			"translation":[
				-1.2442469596862793e-06,
				8.214932441711426,
				2.384185791015625e-07
			]
		},
		{
			"children":[
				9
			],
			"name":"arm_right_bot",
			"rotation":[
				-0.01948094740509987,
				-0.0012932770187035203,
				-0.2062097042798996,
				0.9783130884170532
			],
			"scale":[
				1,
				1,
				0.9999999403953552
			],
			"translation":[
				5.140900611877441e-07,
				8.668816566467285,
				-5.960464477539063e-08
			]
		},
		{
			"children":[
				10
			],
			"name":"arm_right_top",
			"rotation":[
				-0.003582036355510354,
				0.0006049105431884527,
				-0.021199168637394905,
				0.9997686743736267
			],
			"translation":[
				-3.725290298461914e-07,
				2.092052698135376,
				-1.1920928955078125e-07
			]
		},
		{
			"children":[
				11
			],
			"name":"shoulder_right",
			"rotation":[
				0.04910992830991745,
				9.35775723576171e-09,
				0.44190406799316406,
				0.8957170248031616
			],
			"scale":[
				1,
				0.9999999403953552,
				0.9999999403953552
			],
			"translation":[
				-13.17838191986084,
				-2.098571538925171,
				-0.5069238543510437
			]
		},
		{
			"children":[
				4,
				7,
				12
			],
			"name":"body_top2",
			"rotation":[
				1.3134290099969803e-08,
				0,
				0,
				1
			],
			"translation":[
				0,
				1.5446126461029053,
				1.0690683893699315e-07
			]
		},
		{
			"children":[
				13
			],
			"name":"body_top1",
			"translation":[
				0,
				1.853534460067749,
				-9.70817382039968e-09
			]
		},
		{
			"children":[
				14
			],
			"name":"body_top0",
			"translation":[
				0,
				1.5446107387542725,
				8.877242407834274e-08
			]
		},
		{
			"name":"leg_left_foot_end",
			"rotation":[
				5.1688409996586415e-08,
				5.079782567918301e-07,
				6.170012056827545e-08,
				1
			],
			"scale":[
				1,
				0.9999999403953552,
				0.9999999403953552
			],
			"translation":[
				-4.172325134277344e-07,
				6.5462965965271,
				0
			]
		},
		{
			"children":[
				16
			],
			"name":"leg_left_foot",
			"rotation":[
				-5.42495435240653e-08,
				7.508567068725824e-05,
				-5.838229100163517e-08,
				1
			],
			"scale":[
				0.9999999403953552,
				0.9999999403953552,
				1
			],
			"translation":[
				2.086162567138672e-07,
				16.303306579589844,
				-1.4901161193847656e-07
			]
		},
		{
			"children":[
				17
			],
			"name":"leg_left_bot",
			"rotation":[
				-0.05366111919283867,
				-0.9381939172744751,
				0.011626589111983776,
				0.34172722697257996
			],
			"scale":[
				0.9999999403953552,
				0.9999999403953552,
				1
			],
			"translation":[
				-2.9802322387695312e-08,
				16.278308868408203,
				-2.682209014892578e-07
			]
		},
		{
			"children":[
				18
			],
			"name":"leg_left_top",
			"rotation":[
				0.8943457007408142,
				-1.822353934421983e-09,
				-0.44714176654815674,
				0.014491898939013481
			],
			"translation":[
				4.70133113861084,
				-2.8659510612487793,
				1.4375576972961426
			]
		},
		{
			"name":"leg_right_foot_end",
			"rotation":[
				9.167077763549969e-09,
				0,
				0,
				1
			],
			"translation":[
				0,
				6.502033233642578,
				3.311151886009611e-08
			]
		},
		{
			"children":[
				20
			],
			"name":"leg_right_foot",
			"rotation":[
				-5.486203491500419e-09,
				-8.077607940504467e-17,
				1.4723491759127683e-08,
				1
			],
			"translation":[
				-4.569752576344399e-09,
				16.193073272705078,
				4.7735284169903025e-08
			]
		},
		{
			"children":[
				21
			],
			"name":"leg_right_bot",
			"rotation":[
				-3.68087427204955e-09,
				-5.419528554769827e-17,
				-1.4723491759127683e-08,
				1
			],
			"translation":[
				0,
				16.271472930908203,
				-4.2166334424109664e-08
			]
		},
		{
			"children":[
				22
			],
			"name":"leg_right_top",
			"rotation":[
				0,
				0,
				-1,
				0
			],
			"translation":[
				-6.420686721801758,
				-2.8659510612487793,
				1.8446156978607178
			]
		},
		{
			"children":[
				15,
				19,
				23
			],
			"name":"body",
			"rotation":[
				-5.0068865675712004e-06,
				0,
				0,
				1
			],
			"translation":[
				0,
				41.83252716064453,
				-0.00041848752880468965
			]
		},
		{
			"children":[
				24
			],
			"name":"root",
			"rotation":[
				-0.7071031928062439,
				0,
				0,
				0.7071103453636169
			],
			"translation":[
				0.7508877515792847,
				-3.6050398349761963,
				39.04336166381836
			]
		},
		{
			"mesh":0,
			"name":"A_cartoon_kid_with_hu_1231165459_texture",
			"skin":0
		},
		{
			"children":[
				26,
				25
			],
			"name":"rig",
			"rotation":[
				0.7071068286895752,
				0,
				0,
				0.7071068286895752
			]
		}
	],
	"materials":[
		{
			"doubleSided":true,
			"name":"Material_0.001",
			"pbrMetallicRoughness":{
				"baseColorTexture":{
					"index":0
				},
				"metallicFactor":0,
				"roughnessFactor":0.800000011920929
			}
		}
	],
	"meshes":[
		{
			"name":"A_cartoon_kid_with_hu_1231165459_texture",
			"primitives":[
				{
					"attributes":{
						"POSITION":0,
						"NORMAL":1,
						"TEXCOORD_0":2,
						"JOINTS_0":3,
						"WEIGHTS_0":4
					},
					"indices":5,
					"material":0
				}
			]
		}
	],
	"textures":[
		{
			"sampler":0,
			"source":0
		}
	],
	"images":[
		{
			"mimeType":"image/jpeg",
			"name":"Image_0",
			"uri":"Image_0.jpg"
		}
	],
	"skins":[
		{
			"inverseBindMatrices":6,
			"joints":[
				25,
				24,
				15,
				14,
				13,
				4,
				3,
				2,
				1,
				0,
				7,
				6,
				5,
				12,
				11,
				10,
				9,
				8,
				19,
				18,
				17,
				16,
				23,
				22,
				21,
				20
			],
			"name":"rig"
		}
	],
	"accessors":[
		{
			"bufferView":0,
			"componentType":5126,
			"count":13535,
			"max":[
				27.896987915039062,
				39.07109832763672,
				13.818796157836914
			],
			"min":[
				-27.896987915039062,
				-39.04336166381836,
				-14.07497501373291
			],
			"type":"VEC3"
		},
		{
			"bufferView":1,
			"componentType":5126,
			"count":13535,
			"type":"VEC3"
		},
		{
			"bufferView":2,
			"componentType":5126,
			"count":13535,
			"type":"VEC2"
		},
		{
			"bufferView":3,
			"componentType":5121,
			"count":13535,
			"type":"VEC4"
		},
		{
			"bufferView":4,
			"componentType":5126,
			"count":13535,
			"type":"VEC4"
		},
		{
			"bufferView":5,
			"componentType":5123,
			"count":58092,
			"type":"SCALAR"
		},
		{
			"bufferView":6,
			"componentType":5126,
			"count":26,
			"type":"MAT4"
		}
	],
	"bufferViews":[
		{
			"buffer":0,
			"byteLength":162420,
			"byteOffset":0,
			"target":34962
		},
		{
			"buffer":0,
			"byteLength":162420,
			"byteOffset":162420,
			"target":34962
		},
		{
			"buffer":0,
			"byteLength":108280,
			"byteOffset":324840,
			"target":34962
		},
		{
			"buffer":0,
			"byteLength":54140,
			"byteOffset":433120,
			"target":34962
		},
		{
			"buffer":0,
			"byteLength":216560,
			"byteOffset":487260,
			"target":34962
		},
		{
			"buffer":0,
			"byteLength":116184,
			"byteOffset":703820,
			"target":34963
		},
		{
			"buffer":0,
			"byteLength":1664,
			"byteOffset":820004
		}
	],
	"samplers":[
		{
			"magFilter":9729,
			"minFilter":9987
		}
	],
	"buffers":[
		{
			"byteLength":821668,
			"uri":"A_cartoon_kid_with_hu_1231165459_texture.bin"
		}
	]
}
