{
	"asset":{
		"generator":"Khronos glTF Blender I/O v4.1.62",
		"version":"2.0"
	},
	"scene":0,
	"scenes":[
		{
			"name":"Scene",
			"nodes":[
				60
			]
		}
	],
	"nodes":[
		{
			"name":"middle_left3_end",
			"rotation":[
				-8.909410098567605e-07,
				-1.330510713160038e-06,
				-2.846936695277691e-06,
				1
			],
			"translation":[
				-8.046627044677734e-07,
				0.3566319942474365,
				1.1920928955078125e-07
			]
		},
		{
			"children":[
				0
			],
			"name":"middle_left3",
			"rotation":[
				9.447394972994516e-07,
				1.3605458661913872e-06,
				2.8444919735193253e-06,
				1
			],
			"scale":[
				1,
				0.9999999403953552,
				1
			],
			"translation":[
				3.2782554626464844e-07,
				0.7132629156112671,
				0
			]
		},
		{
			"children":[
				1
			],
			"name":"middle_left2",
			"rotation":[
				2.543092705309391e-07,
				5.750917253521948e-08,
				-1.307111233472824e-06,
				1
			],
			"scale":[
				1,
				1,
				0.9999998807907104
			],
			"translation":[
				-5.364418029785156e-07,
				0.7132629156112671,
				2.384185791015625e-07
			]
		},
		{
			"children":[
				2
			],
			"name":"middle_left1",
			"rotation":[
				1.9259461225829e-07,
				2.7293572202324867e-07,
				3.380700945854187e-07,
				1
			],
			"scale":[
				1,
				0.9999999403953552,
				1
			],
			"translation":[
				-1.7881393432617188e-07,
				1.6048409938812256,
				5.960464477539062e-07
			]
		},
		{
			"children":[
				3
			],
			"name":"middle_left0",
			"rotation":[
				-0.0023295532446354628,
				-0.010291562415659428,
				-0.052098628133535385,
				0.9985861778259277
			],
			"scale":[
				1,
				1.0000001192092896,
				1
			],
			"translation":[
				-0.3641035556793213,
				2.5494840145111084,
				-0.14219701290130615
			]
		},
		{
			"name":"index_left3_end",
			"rotation":[
				-4.274072580301436e-06,
				-2.6505442747293273e-06,
				5.143695034348639e-06,
				1
			],
			"scale":[
				0.9999999403953552,
				0.9999999403953552,
				0.9999999403953552
			],
			"translation":[
				2.980232238769531e-07,
				0.3083159327507019,
				0
			]
		},
		{
			"children":[
				5
			],
			"name":"index_left3",
			"rotation":[
				5.460926331579685e-06,
				2.78279185295105e-06,
				-8.868053555488586e-06,
				1
			],
			"translation":[
				0,
				0.616635262966156,
				-7.152557373046875e-07
			]
		},
		{
			"children":[
				6
			],
			"name":"index_left2",
			"rotation":[
				-1.4527468010783195e-06,
				4.502944932482933e-07,
				6.9444072323676664e-06,
				1
			],
			"scale":[
				0.9999999403953552,
				1,
				1
			],
			"translation":[
				8.940696716308594e-07,
				0.616640567779541,
				7.152557373046875e-07
			]
		},
		{
			"children":[
				7
			],
			"name":"index_left1",
			"rotation":[
				6.565824151039124e-07,
				8.475035429000854e-08,
				-1.8891877289206604e-06,
				1
			],
			"scale":[
				1.0000001192092896,
				1,
				1
			],
			"translation":[
				-3.5762786865234375e-07,
				1.3874326944351196,
				-2.384185791015625e-07
			]
		},
		{
			"children":[
				8
			],
			"name":"index_left0",
			"rotation":[
				0.05721640959382057,
				0.04773026332259178,
				-0.021844204515218735,
				0.9969809651374817
			],
			"scale":[
				0.9999999403953552,
				1,
				1
			],
			"translation":[
				-0.21944093704223633,
				2.5494842529296875,
				1.2150905132293701
			]
		},
		{
			"name":"thumb_left3_end",
			"rotation":[
				4.544854164123535e-07,
				3.213062882423401e-08,
				-7.43195357699733e-07,
				1
			],
			"scale":[
				1.0000001192092896,
				1,
				1
			],
			"translation":[
				-5.960464477539062e-07,
				0.4812345504760742,
				-1.9073486328125e-06
			]
		},
		{
			"children":[
				10
			],
			"name":"thumb_left3",
			"rotation":[
				-1.1473894119262695e-06,
				-9.243377121492813e-07,
				6.579793989658356e-07,
				1
			],
			"scale":[
				0.9999999403953552,
				1,
				1
			],
			"translation":[
				-2.980232238769531e-07,
				0.962472677230835,
				-9.5367431640625e-07
			]
		},
		{
			"children":[
				11
			],
			"name":"thumb_left2",
			"rotation":[
				2.510846115910681e-06,
				3.591180302464636e-06,
				2.779998453661392e-07,
				1
			],
			"scale":[
				0.9999999403953552,
				0.9999998211860657,
				0.9999998807907104
			],
			"translation":[
				-2.980232238769531e-07,
				1.1549638509750366,
				4.76837158203125e-07
			]
		},
		{
			"children":[
				12
			],
			"name":"thumb_left1",
			"rotation":[
				-9.94652509689331e-07,
				-1.855194682320871e-06,
				-5.173496901988983e-07,
				1
			],
			"scale":[
				0.9999999403953552,
				1,
				1
			],
			"translation":[
				2.980232238769531e-07,
				0.9624727964401245,
				-2.384185791015625e-07
			]
		},
		{
			"children":[
				13
			],
			"name":"thumb_left0",
			"rotation":[
				0.2745007574558258,
				0.2160571664571762,
				-0.18688641488552094,
				0.9181732535362244
			],
			"translation":[
				-0.5844252109527588,
				-1.3461802005767822,
				1.8044143915176392
			]
		},
		{
			"name":"ring_left3_end",
			"rotation":[
				9.033828973770142e-08,
				9.499490261077881e-08,
				2.9336659324030734e-08,
				1
			],
			"scale":[
				1,
				1.0000001192092896,
				1
			],
			"translation":[
				-8.493661880493164e-07,
				0.31938523054122925,
				-3.5762786865234375e-07
			]
		},
		{
			"children":[
				15
			],
			"name":"ring_left3",
			"rotation":[
				2.621673047542572e-07,
				3.259629011154175e-09,
				-1.4621764421463013e-06,
				1
			],
			"translation":[
				-1.6540288925170898e-06,
				0.6387655735015869,
				1.0132789611816406e-06
			]
		},
		{
			"children":[
				16
			],
			"name":"ring_left2",
			"rotation":[
				5.587935447692871e-09,
				1.0803341865539551e-07,
				7.520429790019989e-07,
				1
			],
			"translation":[
				-9.5367431640625e-07,
				0.6387656331062317,
				0
			]
		},
		{
			"children":[
				17
			],
			"name":"ring_left1",
			"rotation":[
				-1.6530975699424744e-07,
				-1.802109181880951e-07,
				-8.647330105304718e-07,
				1
			],
			"translation":[
				1.9371509552001953e-07,
				1.437211275100708,
				0
			]
		},
		{
			"children":[
				18
			],
			"name":"ring_left0",
			"rotation":[
				-0.011502415873110294,
				-0.009655379690229893,
				0.004010951146483421,
				0.9998791813850403
			],
			"scale":[
				0.9999999403953552,
				0.9999999403953552,
				1
			],
			"translation":[
				0.3264363706111908,
				2.5494883060455322,
				-1.2328202724456787
			]
		},
		{
			"children":[
				4,
				9,
				14,
				19
			],
			"name":"arm_left_hand",
			"rotation":[
				-0.026647889986634254,
				-0.02351849339902401,
				0.001994062215089798,
				0.9993662238121033
			],
			"scale":[
				1,
				0.9999999403953552,
				1
			],
			"translation":[
				2.980232238769531e-07,
				7.885322093963623,
				-1.1920928955078125e-07
			]
		},
		{
			"children":[
				20
			],
			"name":"arm_left_bot",
			"rotation":[
				-0.09452139586210251,
				-0.0697978287935257,
				0.07304681837558746,
				0.9903828501701355
			],
			"scale":[
				1,
				0.9999999403953552,
				0.9999998807907104
			],
			"translation":[
				-1.3560056686401367e-06,
				4.070411205291748,
				2.086162567138672e-07
			]
		},
		{
			"children":[
				21
			],
			"name":"arm_left_top",
			"rotation":[
				-0.11144661158323288,
				-0.08079846948385239,
				0.08987471461296082,
				0.9863943457603455
			],
			"scale":[
				0.9999998807907104,
				0.9999998211860657,
				0.9999998807907104
			],
			"translation":[
				-1.1920928955078125e-06,
				1.3474453687667847,
				5.960464477539062e-07
			]
		},
		{
			"children":[
				22
			],
			"name":"shoulder_left",
			"rotation":[
				0.39290696382522583,
				7.183531636201224e-08,
				-0.7260226011276245,
				0.5643715858459473
			],
			"translation":[
				11.81994342803955,
				-5.463500022888184,
				-4.174798965454102
			]
		},
		{
			"name":"head_end",
			"rotation":[
				-1.712255404129337e-08,
				0,
				0,
				1
			],
			"translation":[
				0,
				3.4810619354248047,
				-1.0626740731822792e-07
			]
		},
		{
			"children":[
				24
			],
			"name":"head",
			"rotation":[
				1.712255404129337e-08,
				0,
				0,
				1
			],
			"translation":[
				0,
				6.96212100982666,
				5.545723524846835e-08
			]
		},
		{
			"children":[
				25
			],
			"name":"neck",
			"translation":[
				0,
				2.0000016689300537,
				1.2587827313836897e-07
			]
		},
		{
			"name":"middle_right3_end",
			"rotation":[
				-3.110617853963049e-06,
				3.1720851438876707e-06,
				-1.0277145747750183e-06,
				1
			],
			"scale":[
				0.9999999403953552,
				0.9999998807907104,
				0.9999998807907104
			],
			"translation":[
				1.3709068298339844e-06,
				0.1999988555908203,
				2.1457672119140625e-06
			]
		},
		{
			"children":[
				27
			],
			"name":"middle_right3",
			"rotation":[
				5.662441253662109e-06,
				-8.499715477228165e-06,
				-1.0738150422184845e-06,
				1
			],
			"scale":[
				0.9999999403953552,
				0.9999999403953552,
				1
			],
			"translation":[
				-1.7881393432617188e-07,
				0.39999938011169434,
				-9.5367431640625e-07
			]
		},
		{
			"children":[
				28
			],
			"name":"middle_right2",
			"rotation":[
				4.991888999938965e-07,
				3.909692168235779e-06,
				5.105510354042053e-06,
				1
			],
			"translation":[
				5.364418029785156e-07,
				0.3999999761581421,
				-4.76837158203125e-07
			]
		},
		{
			"children":[
				29
			],
			"name":"middle_right1",
			"rotation":[
				-8.158385185197403e-07,
				-2.0056029370607575e-06,
				-3.4202819279016694e-06,
				1
			],
			"scale":[
				1.0000001192092896,
				1,
				1.0000001192092896
			],
			"translation":[
				1.0132789611816406e-06,
				0.9000009298324585,
				-2.1457672119140625e-06
			]
		},
		{
			"children":[
				30
			],
			"name":"middle_right0",
			"rotation":[
				0.02186780981719494,
				0.06221254914999008,
				0.10049773007631302,
				0.9927495718002319
			],
			"scale":[
				1,
				0.9999998211860657,
				0.9999999403953552
			],
			"translation":[
				0.311393141746521,
				1.3053102493286133,
				1.4405831098556519
			]
		},
		{
			"name":"index_right3_end",
			"rotation":[
				-3.5297125577926636e-07,
				9.683426469564438e-07,
				2.561137080192566e-06,
				1
			],
			"translation":[
				3.5762786865234375e-07,
				0.3943546414375305,
				1.1920928955078125e-07
			]
		},
		{
			"children":[
				32
			],
			"name":"index_right3",
			"rotation":[
				2.2444875469318504e-07,
				-9.380746632814407e-07,
				-3.0016528853593627e-06,
				1
			],
			"scale":[
				1,
				0.9999998807907104,
				1
			],
			"translation":[
				2.980232238769531e-07,
				0.7887138724327087,
				-3.5762786865234375e-07
			]
		},
		{
			"children":[
				33
			],
			"name":"index_right2",
			"rotation":[
				-0.041124045848846436,
				0.05247798562049866,
				0.03327030688524246,
				0.9972200989723206
			],
			"scale":[
				0.9999999403953552,
				1.0000001192092896,
				1.0000001192092896
			],
			"translation":[
				-2.9206275939941406e-06,
				0.7921191453933716,
				-2.86102294921875e-06
			]
		},
		{
			"children":[
				34
			],
			"name":"index_right1",
			"rotation":[
				1.1329539120197296e-06,
				-1.3364478945732117e-06,
				-7.720664711996506e-07,
				1
			],
			"scale":[
				1,
				0.9999999403953552,
				1
			],
			"translation":[
				-1.0132789611816406e-06,
				1.7822628021240234,
				7.152557373046875e-07
			]
		},
		{
			"children":[
				35
			],
			"name":"index_right0",
			"rotation":[
				-0.21293775737285614,
				0.21697311103343964,
				0.004220806527882814,
				0.9526607394218445
			],
			"scale":[
				0.9999999403953552,
				0.9999999403953552,
				0.9999999403953552
			],
			"translation":[
				-0.04015982151031494,
				1.5498409271240234,
				-1.078680396080017
			]
		},
		{
			"name":"thumb_right3_end",
			"rotation":[
				-1.9292347133159637e-06,
				6.202608346939087e-07,
				-2.345070242881775e-06,
				1
			],
			"scale":[
				0.9999999403953552,
				1,
				1
			],
			"translation":[
				-3.5762786865234375e-07,
				0.48590803146362305,
				7.748603820800781e-07
			]
		},
		{
			"children":[
				37
			],
			"name":"thumb_right3",
			"rotation":[
				2.355314791202545e-06,
				-7.953494787216187e-07,
				2.6831403374671936e-06,
				1
			],
			"translation":[
				-4.172325134277344e-07,
				0.9718159437179565,
				-8.344650268554688e-07
			]
		},
		{
			"children":[
				38
			],
			"name":"thumb_right2",
			"rotation":[
				0.04956817254424095,
				-0.04193928465247154,
				-0.0002157948474632576,
				0.9978898167610168
			],
			"scale":[
				0.9999998807907104,
				0.9999999403953552,
				1
			],
			"translation":[
				-5.960464477539063e-08,
				1.1699954271316528,
				-5.960464477539063e-08
			]
		},
		{
			"children":[
				39
			],
			"name":"thumb_right1",
			"rotation":[
				-1.3504177331924438e-07,
				1.825392388354885e-07,
				-2.2351743567128324e-08,
				1
			],
			"scale":[
				0.9999999403953552,
				1,
				1
			],
			"translation":[
				-1.6763806343078613e-06,
				0.9749996662139893,
				-1.214444637298584e-06
			]
		},
		{
			"children":[
				40
			],
			"name":"thumb_right0",
			"rotation":[
				-0.22837236523628235,
				0.16945496201515198,
				-0.0710214152932167,
				0.9560790061950684
			],
			"scale":[
				0.9999998807907104,
				1,
				0.9999999403953552
			],
			"translation":[
				-1.7461998462677002,
				1.0490883588790894,
				-2.4858274459838867
			]
		},
		{
			"children":[
				31,
				36,
				41
			],
			"name":"arm_right_hand",
			"rotation":[
				0.28195998072624207,
				-0.24357160925865173,
				0.04664989933371544,
				0.926819920539856
			],
			"scale":[
				1.0000001192092896,
				1,
				1
			],
			"translation":[
				-2.980232238769531e-07,
				7.885322093963623,
				-1.1920928955078125e-07
			]
		},
		{
			"children":[
				42
			],
			"name":"arm_right_bot",
			"rotation":[
				-0.09452139586210251,
				0.0697978287935257,
				-0.07304681837558746,
				0.9903828501701355
			],
			"scale":[
				1,
				0.9999999403953552,
				0.9999998807907104
			],
			"translation":[
				1.3560056686401367e-06,
				4.070411205291748,
				2.086162567138672e-07
			]
		},
		{
			"children":[
				43
			],
			"name":"arm_right_top",
			"rotation":[
				-0.11144661158323288,
				0.08079846948385239,
				-0.08987471461296082,
				0.9863943457603455
			],
			"scale":[
				0.9999998807907104,
				0.9999998211860657,
				0.9999998807907104
			],
			"translation":[
				1.1920928955078125e-06,
				1.3474453687667847,
				5.960464477539062e-07
			]
		},
		{
			"children":[
				44
			],
			"name":"shoulder_right",
			"rotation":[
				0.39290696382522583,
				-7.183531636201224e-08,
				0.7260226011276245,
				0.5643715858459473
			],
			"translation":[
				-11.704907417297363,
				-5.463500022888184,
				-4.174798965454102
			]
		},
		{
			"children":[
				23,
				26,
				45
			],
			"name":"body_top2",
			"translation":[
				0,
				1.2335633039474487,
				-2.511762886570068e-08
			]
		},
		{
			"children":[
				46
			],
			"name":"body_top1",
			"translation":[
				0,
				1.48027503490448,
				9.603127182344906e-10
			]
		},
		{
			"children":[
				47
			],
			"name":"body_top0",
			"rotation":[
				2.2737367544323206e-12,
				0,
				0,
				1
			],
			"translation":[
				0,
				1.2335575819015503,
				-2.2995578774498426e-07
			]
		},
		{
			"name":"leg_left_foot_end",
			"rotation":[
				2.1977122344196687e-09,
				0,
				0,
				1
			],
			"scale":[
				1,
				0.9999999403953552,
				1
			],
			"translation":[
				0,
				6.780303955078125,
				1.064108801074326e-10
			]
		},
		{
			"children":[
				49
			],
			"name":"leg_left_foot",
			"rotation":[
				-4.843728973469297e-09,
				0,
				0,
				1
			],
			"translation":[
				0,
				19.710407257080078,
				7.706375981797464e-09
			]
		},
		{
			"children":[
				50
			],
			"name":"leg_left_bot",
			"rotation":[
				2.6437430022951958e-09,
				0,
				0,
				1
			],
			"translation":[
				0,
				20.224884033203125,
				3.2470097721670754e-09
			]
		},
		{
			"children":[
				51
			],
			"name":"leg_left_top",
			"rotation":[
				0,
				0,
				-1,
				0
			],
			"translation":[
				4.697627544403076,
				-0.5175981521606445,
				-1.9510353803634644
			]
		},
		{
			"name":"leg_right_foot_end",
			"rotation":[
				2.1660806481804684e-09,
				0,
				0,
				1
			],
			"translation":[
				0,
				6.87932014465332,
				-9.299810699303634e-09
			]
		},
		{
			"children":[
				53
			],
			"name":"leg_right_foot",
			"rotation":[
				-4.8120973872300965e-09,
				0,
				0,
				1
			],
			"translation":[
				0,
				19.710407257080078,
				7.706375981797464e-09
			]
		},
		{
			"children":[
				54
			],
			"name":"leg_right_bot",
			"rotation":[
				2.6437430022951958e-09,
				0,
				0,
				1
			],
			"translation":[
				0,
				20.224884033203125,
				3.2470097721670754e-09
			]
		},
		{
			"children":[
				55
			],
			"name":"leg_right_top",
			"rotation":[
				0,
				0,
				-1,
				0
			],
			"translation":[
				-4.582591533660889,
				-0.5175981521606445,
				-1.9510353803634644
			]
		},
		{
			"children":[
				48,
				52,
				56
			],
			"name":"body",
			"rotation":[
				-5.006912942917552e-06,
				0,
				0,
				1
			],
			"scale":[
				1,
				0.9999999403953552,
				1
			],
			"translation":[
				0,
				47.33219528198242,
				-0.0004737268027383834
			]
		},
		{
			"children":[
				57
			],
			"name":"root",
			"rotation":[
				-0.7071031928062439,
				0,
				0,
				0.7071103453636169
			],
			"translation":[
				-0.05751810967922211,
				1.7693347930908203,
				37.40150833129883
			]
		},
		{
			"mesh":0,
			"name":"Nerd",
			"skin":0
		},
		{
			"children":[
				59,
				58
			],
			"name":"rig",
			"rotation":[
				0.7071068286895752,
				0,
				0,
				0.7071068286895752
			]
		}
	],
	"materials":[
		{
			"doubleSided":true,
			"name":"Material_0.001",
			"pbrMetallicRoughness":{
				"baseColorTexture":{
					"index":0
				},
				"metallicFactor":0,
				"roughnessFactor":0.800000011920929
			}
		}
	],
	"meshes":[
		{
			"name":"Nerd",
			"primitives":[
				{
					"attributes":{
						"POSITION":0,
						"NORMAL":1,
						"TEXCOORD_0":2,
						"JOINTS_0":3,
						"WEIGHTS_0":4
					},
					"indices":5,
					"material":0
				}
			]
		}
	],
	"textures":[
		{
			"sampler":0,
			"source":0
		}
	],
	"images":[
		{
			"mimeType":"image/jpeg",
			"name":"Image_0",
			"uri":"Image_0.jpg"
		}
	],
	"skins":[
		{
			"inverseBindMatrices":6,
			"joints":[
				58,
				57,
				48,
				47,
				46,
				23,
				22,
				21,
				20,
				4,
				3,
				2,
				1,
				0,
				9,
				8,
				7,
				6,
				5,
				14,
				13,
				12,
				11,
				10,
				19,
				18,
				17,
				16,
				15,
				26,
				25,
				24,
				45,
				44,
				43,
				42,
				31,
				30,
				29,
				28,
				27,
				36,
				35,
				34,
				33,
				32,
				41,
				40,
				39,
				38,
				37,
				52,
				51,
				50,
				49,
				56,
				55,
				54,
				53
			],
			"name":"rig"
		}
	],
	"accessors":[
		{
			"bufferView":0,
			"componentType":5126,
			"count":14798,
			"max":[
				30.768577575683594,
				37.32443618774414,
				12.698138236999512
			],
			"min":[
				-30.910327911376953,
				-37.40150833129883,
				-12.252422332763672
			],
			"type":"VEC3"
		},
		{
			"bufferView":1,
			"componentType":5126,
			"count":14798,
			"type":"VEC3"
		},
		{
			"bufferView":2,
			"componentType":5126,
			"count":14798,
			"type":"VEC2"
		},
		{
			"bufferView":3,
			"componentType":5121,
			"count":14798,
			"type":"VEC4"
		},
		{
			"bufferView":4,
			"componentType":5126,
			"count":14798,
			"type":"VEC4"
		},
		{
			"bufferView":5,
			"componentType":5123,
			"count":60375,
			"type":"SCALAR"
		},
		{
			"bufferView":6,
			"componentType":5126,
			"count":59,
			"type":"MAT4"
		}
	],
	"bufferViews":[
		{
			"buffer":0,
			"byteLength":177576,
			"byteOffset":0,
			"target":34962
		},
		{
			"buffer":0,
			"byteLength":177576,
			"byteOffset":177576,
			"target":34962
		},
		{
			"buffer":0,
			"byteLength":118384,
			"byteOffset":355152,
			"target":34962
		},
		{
			"buffer":0,
			"byteLength":59192,
			"byteOffset":473536,
			"target":34962
		},
		{
			"buffer":0,
			"byteLength":236768,
			"byteOffset":532728,
			"target":34962
		},
		{
			"buffer":0,
			"byteLength":120750,
			"byteOffset":769496,
			"target":34963
		},
		{
			"buffer":0,
			"byteLength":3776,
			"byteOffset":890248
		}
	],
	"samplers":[
		{
			"magFilter":9729,
			"minFilter":9987
		}
	],
	"buffers":[
		{
			"byteLength":894024,
			"uri":"Nerd.bin"
		}
	]
}
